<svg width="60" height="49" viewBox="0 0 60 49" fill="none" xmlns="http://www.w3.org/2000/svg">
<path d="M60 0V48.1167H58.006V6.46138L40.8322 34.5915V48.1167H38.8383V6.46138L13.4043 48.1167H0L29.4898 0H40.8322V12.753L48.6576 0H60Z" fill="white"/>
<path d="M31.1253 27.5065H29.0635C28.6933 27.5065 28.3931 27.8066 28.3931 28.1768V30.2386C28.3931 30.6089 28.6933 30.909 29.0635 30.909H31.1253C31.4955 30.909 31.7957 30.6089 31.7957 30.2386V28.1768C31.7957 27.8066 31.4955 27.5065 31.1253 27.5065Z" fill="white"/>
<path d="M31.1253 31.5284H29.0635C28.6933 31.5284 28.3931 31.8285 28.3931 32.1987V34.2606C28.3931 34.6308 28.6933 34.9309 29.0635 34.9309H31.1253C31.4955 34.9309 31.7957 34.6308 31.7957 34.2606V32.1987C31.7957 31.8285 31.4955 31.5284 31.1253 31.5284Z" fill="white"/>
<path d="M35.1473 27.5065H33.0854C32.7152 27.5065 32.4151 27.8066 32.4151 28.1768V30.2386C32.4151 30.6089 32.7152 30.909 33.0854 30.909H35.1473C35.5175 30.909 35.8176 30.6089 35.8176 30.2386V28.1768C35.8176 27.8066 35.5175 27.5065 35.1473 27.5065Z" fill="white"/>
<path d="M35.1473 31.5284H33.0854C32.7152 31.5284 32.4151 31.8285 32.4151 32.1987V34.2606C32.4151 34.6308 32.7152 34.9309 33.0854 34.9309H35.1473C35.5175 34.9309 35.8176 34.6308 35.8176 34.2606V32.1987C35.8176 31.8285 35.5175 31.5284 35.1473 31.5284Z" fill="white"/>
</svg>
